<svg aria-hidden="true" style="position: absolute; width: 0; height: 0; overflow: hidden;" version="1.1" xmlns="http://www.w3.org/2000/svg" xmlns:xlink="http://www.w3.org/1999/xlink">
<defs>
<symbol id="icon-antenna" viewBox="0 0 32 32">
<path fill="#212121" style="fill: var(--color1, #212121)" d="M30.773 22.098l-8.443-8.505 0.937-4.616c0.225 0.090 0.485 0.144 0.758 0.146h0.007c0.008 0 0.017 0 0.026 0 1.192 0 2.159-0.967 2.159-2.159s-0.967-2.159-2.159-2.159c-1.192 0-2.159 0.967-2.159 2.159 0 0.259 0.046 0.508 0.13 0.739l-0.005-0.015-4.96 0.606-8.091-8.133c-0.096-0.098-0.229-0.159-0.376-0.16h-0c-0.14 0.001-0.274 0.057-0.373 0.155l-1.512 1.504c-0.096 0.097-0.156 0.23-0.156 0.377s0.060 0.281 0.156 0.377v0l0.814 0.825c-1.143 2.062-1.816 4.522-1.816 7.139 0 4.106 1.656 7.824 4.336 10.525l-0.001-0.001c0.043 0.041 0.092 0.074 0.146 0.097-0.032 0.164-0.051 0.353-0.052 0.546v6.188h-6.4c-1.472 0.001-2.666 1.194-2.667 2.666v1.067c0 0.295 0.239 0.534 0.534 0.534h24.534c0.294 0 0.533-0.239 0.533-0.534v-1.067c-0.002-1.472-1.195-2.665-2.666-2.666h-6.4v-2.742c0.915 0.201 1.968 0.317 3.047 0.32h0.002c2.58-0.003 5.005-0.663 7.117-1.822l-0.077 0.039 0.818 0.823c0.099 0.101 0.235 0.159 0.376 0.16 0.14-0.001 0.274-0.057 0.373-0.155l1.512-1.504c0.096-0.097 0.156-0.23 0.156-0.377s-0.060-0.281-0.156-0.377v0zM23.28 6.233c0.193-0.192 0.459-0.31 0.752-0.31 0.589 0 1.067 0.478 1.067 1.066s-0.477 1.066-1.067 1.066c-0 0-0 0-0.001 0h-0.003c-0.587-0.003-1.061-0.479-1.061-1.066 0-0.295 0.12-0.563 0.314-0.756l0-0h-0.002zM22.024 9.737l-0.598 2.946-1.175-1.183 1.774-1.763zM21.419 8.835l-1.92 1.909-1.486-1.493 3.406-0.416zM24.004 28.8c0.884 0 1.6 0.716 1.6 1.6v0 0.534h-23.466v-0.534c0-0.884 0.716-1.6 1.6-1.6v0h20.267zM16.538 26.666v1.067h-5.334v-1.067h5.334zM11.204 25.6v-4.053c0-1.294 1.196-2.346 2.667-2.346s2.667 1.053 2.667 2.346v4.053h-5.334zM17.604 23.904v-2.357c0-1.882-1.675-3.413-3.733-3.413-0.017-0-0.038-0-0.058-0-1.353 0-2.54 0.707-3.213 1.771l-0.009 0.016c-2.36-2.482-3.812-5.846-3.812-9.55 0-2.314 0.567-4.496 1.569-6.414l-0.036 0.077 18.602 18.709c-1.823 0.947-3.979 1.502-6.266 1.502-1.079 0-2.128-0.124-3.136-0.357l0.093 0.018zM28.893 23.22l-21.057-21.181 0.754-0.752 7.935 7.98c0.004 0 0.006 0.007 0.009 0.010l13.115 13.191-0.757 0.752z"></path>
<path fill="#2196f3" style="fill: var(--color2, #2196f3)" d="M13.876 20.267h-0.005c-0.001 0-0.002 0-0.002 0-0.884 0-1.6 0.716-1.6 1.6s0.715 1.599 1.597 1.6h0.005c0.001 0 0.001 0 0.002 0 0.884 0 1.6-0.716 1.6-1.6s-0.715-1.599-1.598-1.6h-0zM14.249 22.245c-0.096 0.096-0.229 0.155-0.376 0.155-0.295 0-0.534-0.239-0.534-0.534s0.238-0.533 0.532-0.533h0c0.293 0.002 0.53 0.24 0.53 0.533 0 0.148-0.060 0.281-0.157 0.378v0h0.005z"></path>
</symbol>
<symbol id="icon-astronaut" viewBox="0 0 32 32">
<path fill="#2196f3" style="fill: var(--color2, #2196f3)" d="M31.974 4.524c-0.064-0.191-0.227-0.332-0.427-0.362l-0.003-0-1.911-0.278-0.855-1.731c-0.179-0.365-0.777-0.365-0.956 0l-0.855 1.731-1.911 0.278c-0.26 0.039-0.457 0.26-0.457 0.528 0 0.15 0.062 0.285 0.161 0.382l1.383 1.348-0.326 1.903c-0.034 0.2 0.048 0.402 0.212 0.522 0.166 0.12 0.383 0.135 0.562 0.040l1.709-0.899 1.709 0.899c0.072 0.038 0.157 0.061 0.247 0.061 0.295 0 0.534-0.239 0.534-0.534 0-0.031-0.003-0.062-0.008-0.092l0 0.003-0.326-1.903 1.383-1.348c0.099-0.097 0.161-0.233 0.161-0.382 0-0.059-0.009-0.115-0.027-0.168l0.001 0.004zM29.511 5.851c-0.126 0.122-0.183 0.299-0.153 0.472l0.191 1.114-1-0.526c-0.072-0.039-0.158-0.062-0.249-0.062s-0.177 0.023-0.252 0.063l0.003-0.001-1 0.526 0.191-1.114c0.005-0.027 0.008-0.059 0.008-0.091 0-0.149-0.061-0.285-0.16-0.381l-0-0-0.811-0.789 1.119-0.163c0.174-0.025 0.324-0.134 0.402-0.292l0.5-1.013 0.5 1.013c0.078 0.158 0.228 0.267 0.402 0.292l1.119 0.162-0.809 0.79zM26.134 20.522h-1.067v1.067h1.067v-1.067zM26.134 22.656h-1.067v1.066h1.067v-1.066zM27.2 21.589h-1.067v1.067h1.067v-1.067zM25.067 21.589h-1.067v1.067h1.067v-1.067zM22.4 26.389h-1.067v1.067h1.067v-1.067zM22.4 28.523h-1.067v1.067h1.067v-1.067zM23.467 27.456h-1.067v1.067h1.067v-1.067zM21.334 27.456h-1.067v1.067h1.067v-1.067zM16 24.256h-1.066v1.067h1.066v-1.067zM16 26.389h-1.066v1.067h1.066v-1.067zM17.067 25.322h-1.067v1.067h1.067v-1.067zM14.934 25.322h-1.067v1.067h1.067v-1.067zM5.867 6.122h-1.066v1.066h1.066v-1.066zM5.867 8.256h-1.066v1.066h1.066v-1.066zM6.933 7.189h-1.067v1.067h1.066v-1.067zM4.8 7.189h-1.067v1.067h1.067v-1.067z"></path>
<path fill="#212121" style="fill: var(--color1, #212121)" d="M24.715 14.16c-0.28-0.376-0.698-0.636-1.179-0.703l-0.009-0.001c-0.076-0.012-0.164-0.018-0.254-0.018-0.411 0-0.789 0.139-1.090 0.373l0.004-0.003-1.253 0.96-1.898 1.417-1.358-0.541c2.421-1.086 4.113-3.508 4.113-6.32 0-3.823-3.122-6.934-6.961-6.934s-6.961 3.11-6.961 6.934c0 1.386 0.415 2.674 1.12 3.759l-2.768-0.024c-0.009 0-0.016 0.005-0.023 0.005-0.057 0.003-0.11 0.014-0.159 0.033l0.004-0.001c-0.013 0.005-0.026 0.007-0.038 0.013-0.006 0.003-0.013 0.003-0.019 0.006l-3.233 1.596c-0 0-0.001 0-0.001 0.001l-1.893 0.91c-0.024 0.011-0.045 0.023-0.064 0.036l0.001-0.001c-0.482 0.324-0.795 0.867-0.795 1.483 0 0.297 0.073 0.577 0.201 0.823l-0.005-0.010c0.22 0.424 0.592 0.742 1.043 0.885l0.013 0.003c0.161 0.053 0.345 0.083 0.537 0.083 0.308 0 0.598-0.078 0.851-0.216l-0.009 0.005 1.388-0.738 2.264-1.169 1.357-0.008-5.442 5.415c0 0.001-0.001 0.001-0.001 0.001l-1.339 1.333c-0.303 0.299-0.491 0.714-0.491 1.173 0 0.002 0 0.003 0 0.005v-0c0.002 0.919 0.748 1.664 1.667 1.664 0.001 0 0.002 0 0.002 0h-0c0.428 0 0.854-0.162 1.18-0.485l1.314-1.309 1.741-1.3 0.901 0.897-3.102 3.088c-0.303 0.299-0.491 0.715-0.491 1.174 0 0.001 0 0.003 0 0.004v-0c0 0.445 0.174 0.864 0.49 1.179 0.302 0.3 0.717 0.485 1.176 0.485 0.001 0 0.002 0 0.003 0h-0c0.427 0 0.855-0.162 1.18-0.485l4.488-4.472c0.007-0.006 0.016-0.009 0.022-0.016l5.166-5.658 3.471 0.494c0.025 0.004 0.050 0.006 0.075 0.006 0.064 0 0.127-0.016 0.187-0.038 0.017-0.006 0.032-0.015 0.049-0.023 0.019-0.010 0.039-0.015 0.058-0.027l3.213-2.133c0.012-0.008 0.018-0.021 0.029-0.030 0.013-0.010 0.029-0.014 0.041-0.026l1.271-1.191c0.348-0.326 0.564-0.787 0.564-1.3 0-0.4-0.132-0.769-0.355-1.066l0.003 0.005zM2.13 17.77c-0.098 0.054-0.215 0.086-0.34 0.086-0.078 0-0.153-0.013-0.224-0.036l0.005 0.001c-0.294-0.093-0.504-0.364-0.504-0.683 0-0.236 0.114-0.445 0.29-0.575l0.002-0.001 1.314-0.632 0.316 0.924 0.133 0.389-0.992 0.527zM5.627 15.942l-1.548 0.8-0.255-0.746-0.184-0.537 2.027-1.001-0.040 1.484zM20.727 9.322c0 0.918-0.219 1.785-0.599 2.56l-4.181-1.899c-0.044-0.575-0.342-1.072-0.782-1.384l-0.006-0.004 1.464-4.86c2.377 0.756 4.104 2.974 4.104 5.588zM8.938 9.322c0-3.235 2.644-5.867 5.894-5.867 0.253 0 0.5 0.022 0.745 0.053l-1.432 4.753c-0.019 0-0.037-0.006-0.057-0.006-0 0-0.001 0-0.001 0-1.032 0-1.869 0.835-1.872 1.867v0c0.003 1.031 0.84 1.867 1.872 1.867 0 0 0 0 0.001 0h-0c0.695 0 1.295-0.383 1.618-0.944l3.863 1.755c-1.075 1.446-2.795 2.389-4.737 2.389-3.25 0-5.894-2.632-5.894-5.867zM14.895 10.122c0 0.441-0.362 0.8-0.806 0.8-0 0-0.001 0-0.001 0-0.443 0-0.802-0.358-0.804-0.8v-0c0-0.441 0.361-0.8 0.806-0.8s0.806 0.359 0.806 0.8zM2.464 25.146c-0.11 0.109-0.261 0.176-0.428 0.176s-0.317-0.067-0.427-0.175l0 0c-0.109-0.108-0.176-0.257-0.176-0.422s0.067-0.314 0.176-0.422l0-0 0.962-0.959 0.852 0.848-0.959 0.955zM5.678 28.88c-0.11 0.109-0.261 0.176-0.428 0.176s-0.317-0.067-0.427-0.175l0 0c-0.109-0.108-0.176-0.257-0.176-0.422s0.067-0.314 0.176-0.422l0-0 0.963-0.959 0.852 0.848-0.96 0.955zM9.16 25.411l-0.001 0.001-1.765 1.76-0.852-0.848 1.765-1.757c0.040-0.040 0.065-0.088 0.090-0.136 0.007-0.014 0.020-0.026 0.026-0.040 0.016-0.041 0.019-0.085 0.026-0.128 0.003-0.025 0.014-0.048 0.014-0.073 0-0.035-0.013-0.070-0.020-0.105-0.006-0.032-0.006-0.064-0.019-0.096-0.025-0.053-0.055-0.098-0.092-0.138l0 0c-0.010-0.012-0.014-0.027-0.025-0.038h-0.001s0-0.001-0.001-0.002l-1.607-1.6c-0.017-0.017-0.039-0.024-0.058-0.038-0.025-0.021-0.054-0.040-0.084-0.057l-0.003-0.001c-0.026-0.013-0.058-0.023-0.090-0.031l-0.003-0.001c-0.030-0.009-0.065-0.017-0.101-0.020l-0.002-0c-0.007-0-0.015-0.001-0.023-0.001-0.026 0-0.051 0.002-0.075 0.005l0.003-0c-0.036 0.005-0.069 0.009-0.104 0.021-0.036 0.013-0.067 0.028-0.096 0.046l0.002-0.001c-0.020 0.011-0.043 0.015-0.061 0.029l-1.774 1.324-0.901-0.897 2.399-2.386 4.36 4.289-0.928 0.919zM15.979 18.394c-0.016-0.002-0.030 0.004-0.046 0.003-0.008-0-0.017-0.001-0.027-0.001-0.031 0-0.062 0.003-0.092 0.008l0.003-0c-0.070 0.011-0.132 0.035-0.187 0.070l0.002-0.001c-0.031 0.019-0.058 0.039-0.083 0.062l0-0c-0.013 0.011-0.028 0.016-0.040 0.029l-4.698 5.146-4.328-4.256 2.833-2.818c0.096-0.097 0.156-0.23 0.156-0.377 0-0.295-0.239-0.534-0.534-0.534-0.001 0-0.001 0-0.002 0h0l-2.219 0.013 0.028-1.607 3.104 0.027c1.264 1.297 3.027 2.101 4.978 2.101 0.001 0 0.002 0 0.003 0h-0c0.438 0 0.864-0.046 1.28-0.122 0.040 0.032 0.080 0.064 0.129 0.085l2.41 0.96 0.152 0.759 0.178 0.885-3.003-0.427zM20.020 18.572l-0.313-1.558 1.446-1.080 0.946 1.257-2.080 1.381zM23.773 15.741l-0.837 0.785-0.931-1.237 0.831-0.637c0.155-0.119 0.351-0.168 0.543-0.143 0.193 0.027 0.364 0.128 0.48 0.284 0.088 0.117 0.141 0.265 0.141 0.426 0 0.206-0.087 0.391-0.226 0.521l-0 0z"></path>
<path fill="#212121" style="fill: var(--color1, #212121)" d="M13.602 18.544l-2.143-2.134c-0.096-0.096-0.229-0.155-0.376-0.155s-0.28 0.059-0.376 0.155l-2.143 2.133c-0.097 0.097-0.156 0.23-0.156 0.378s0.060 0.281 0.156 0.378l-0-0 2.142 2.134c0.096 0.096 0.229 0.156 0.376 0.156s0.28-0.059 0.376-0.156v0l2.143-2.134c0.097-0.097 0.157-0.23 0.157-0.378s-0.060-0.281-0.157-0.378l-0-0zM11.083 20.303l-1.387-1.381 1.386-1.381 1.387 1.381-1.387 1.381zM17.164 5.071l-0.258 1.036c0.071 0.018 1.738 0.452 1.738 2.149h1.067c0-2.017-1.666-2.965-2.547-3.184zM19.711 9.322h-1.067v1.066h1.067v-1.066z"></path>
</symbol>
<symbol id="icon-clock" viewBox="0 0 32 32">
<path fill="#212121" style="fill: var(--color1, #212121)" d="M31.296 15.301c-0.001-8.452-6.855-15.303-15.308-15.301s-15.303 6.855-15.301 15.308c0.002 6.788 4.422 12.543 10.54 14.545l0.108 0.031c0.061 0.019 0.123 0.029 0.187 0.029 0.12 0 0.238-0.032 0.342-0.094 0.135-0.080 0.236-0.207 0.283-0.357l3.865-12.25c1.054-0.004 1.906-0.859 1.906-1.913 0-1.056-0.856-1.913-1.913-1.913-0.303 0-0.59 0.071-0.845 0.196l0.011-0.005-5.106-5.107c-0.114-0.11-0.271-0.179-0.443-0.179-0.352 0-0.638 0.286-0.638 0.638 0 0.172 0.068 0.328 0.179 0.443l-0-0 5.103 5.109c-0.121 0.241-0.191 0.525-0.191 0.825 0 0.602 0.283 1.137 0.724 1.481l0.004 0.003-3.683 11.673c-7.278-2.681-11.004-10.754-8.324-18.032s10.754-11.004 18.032-8.323c7.278 2.681 11.004 10.754 8.323 18.032-1.345 3.581-4.003 6.406-7.374 7.938l-0.088 0.036-0.398-1.874c-0.063-0.291-0.318-0.506-0.624-0.506-0.163 0-0.313 0.061-0.425 0.163l0.001-0.001-3.837 3.426c-0.132 0.117-0.214 0.287-0.214 0.477 0 0.283 0.185 0.524 0.441 0.606l0.005 0.001 4.899 1.563c0.058 0.020 0.126 0.031 0.196 0.031 0.352 0 0.637-0.285 0.637-0.637 0-0.047-0.005-0.093-0.015-0.138l0.001 0.004-0.391-1.839c5.528-2.374 9.329-7.772 9.329-14.057 0-0.011 0-0.023-0-0.034v0.002zM15.992 14.664c0.352 0 0.638 0.286 0.638 0.638s-0.285 0.638-0.638 0.638v0c-0.352 0-0.638-0.286-0.638-0.638s0.286-0.638 0.638-0.638v0zM18.092 29.528l2.184-1.948 0.603 2.84-2.787-0.892z"></path>
<path fill="#2196f3" style="fill: var(--color2, #2196f3)" d="M15.354 3.185v1.275c0 0.352 0.286 0.638 0.638 0.638s0.638-0.285 0.638-0.638v0-1.275c0-0.352-0.285-0.638-0.638-0.638s-0.638 0.285-0.638 0.638v0zM3.876 14.664c-0.352 0-0.638 0.286-0.638 0.638s0.285 0.638 0.638 0.638h1.275c0.352 0 0.638-0.286 0.638-0.638s-0.285-0.638-0.638-0.638h-1.275zM28.108 15.939c0.352 0 0.638-0.286 0.638-0.638s-0.285-0.638-0.638-0.638h-1.275c-0.352 0-0.638 0.286-0.638 0.638s0.285 0.638 0.638 0.638h1.275z"></path>
</symbol>
<symbol id="icon-diagram" viewBox="0 0 32 32">
<path fill="#2196f3" style="fill: var(--color2, #2196f3)" d="M14.926 14.965h1.066v4.798h-1.066v-4.798zM19.19 17.097h1.066v2.665h-1.066v-2.665zM10.661 18.696h1.066v1.066h-1.066v-1.066zM7.463 18.163h1.066v1.599h-1.066v-1.599z"></path>
<path fill="#212121" style="fill: var(--color1, #212121)" d="M1.599 28.291h25.586c0 0 0 0 0 0 0.883 0 1.599-0.716 1.599-1.599v0-2.132c0-0.883-0.716-1.599-1.599-1.599v0h-0.533v-13.294l3.028-2.868c0.207 0.104 0.452 0.166 0.711 0.166 0.888 0 1.608-0.72 1.608-1.608s-0.72-1.608-1.608-1.608c-0.888 0-1.608 0.72-1.608 1.608 0 0.247 0.056 0.481 0.155 0.69l-0.004-0.010-2.281 2.162v-1.23c0-0.883-0.716-1.599-1.599-1.599v0h-21.323c-0.883 0-1.599 0.716-1.599 1.599v0 15.992h-0.533c-0.883 0-1.599 0.716-1.599 1.599v0 2.132c0 0.883 0.716 1.599 1.599 1.599v0zM30.384 4.837c0.294 0 0.533 0.239 0.533 0.533s-0.239 0.533-0.533 0.533v0c-0.294 0-0.533-0.239-0.533-0.533s0.239-0.533 0.533-0.533v0zM3.198 6.969c0-0.294 0.239-0.533 0.533-0.533h21.323c0.294 0 0.533 0.239 0.533 0.533v2.239l-1.066 1.013v-2.185c0-0.295-0.239-0.534-0.534-0.534h-19.189c-0.294 0-0.534 0.239-0.534 0.533v13.327c0 0.294 0.239 0.533 0.534 0.533h19.189c0.295 0 0.534-0.239 0.534-0.533v-9.675l1.066-1.010v12.283h-22.389v-15.991zM7.996 13.899c-0.001 0-0.003 0-0.005 0-0.883 0-1.599 0.716-1.599 1.599s0.716 1.599 1.599 1.599c0.432 0 0.824-0.172 1.112-0.45l-0 0 1.853 0.93c0.215 0.107 0.476 0.057 0.636-0.122l3.939-4.432 3.872 2.902c0.208 0.155 0.498 0.139 0.686-0.039l3.365-3.188v8.131h-18.123v-12.261h18.123v2.661l-3.771 3.572-3.904-2.927c-0.088-0.067-0.2-0.107-0.32-0.107-0.158 0-0.3 0.069-0.398 0.178l-0 0.001-3.993 4.493-1.493-0.746c0.011-0.064 0.017-0.128 0.020-0.193 0-0.883-0.716-1.599-1.599-1.599v0zM8.529 15.498c0 0.294-0.239 0.533-0.533 0.533s-0.533-0.239-0.533-0.533v0c0-0.294 0.239-0.533 0.533-0.533s0.533 0.239 0.533 0.533v0zM11.727 24.026h5.33v0.533c0 0.294-0.238 0.533-0.533 0.533h-4.265c-0.294 0-0.533-0.239-0.533-0.533v0-0.533zM1.067 24.56c0-0.294 0.238-0.533 0.533-0.533h9.062v0.533c0 0.883 0.716 1.599 1.599 1.599v0h4.265c0.883 0 1.599-0.716 1.599-1.599v0-0.533h9.062c0.294 0 0.533 0.239 0.533 0.533v2.132c0 0.294-0.239 0.533-0.533 0.533h-25.586c-0 0-0 0-0 0-0.294 0-0.533-0.239-0.533-0.533 0 0 0 0 0 0v0-2.132z"></path>
</symbol>
<symbol id="icon-envelope" viewBox="0 0 43 32">
<path d="M38.667 0h-34.667c-2.205 0-4 1.795-4 4v24c0 2.205 1.795 4 4 4h34.667c2.205 0 4-1.795 4-4v-24c0-2.205-1.795-4-4-4zM38.667 2.667c0.181 0 0.355 0.037 0.512 0.104l-17.845 15.467-17.845-15.467c0.151-0.065 0.327-0.104 0.512-0.104h34.667zM38.667 29.333h-34.667c-0.736 0-1.333-0.597-1.333-1.333v0-22.413l17.792 15.421c0.233 0.203 0.539 0.327 0.875 0.327s0.642-0.124 0.876-0.328l-0.002 0.001 17.792-15.421v22.413c0 0.736-0.597 1.333-1.333 1.333v0z"></path>
</symbol>
<symbol id="icon-facebook" viewBox="0 0 32 32">
<path d="M21.328 5.312h2.923v-5.088c-1.232-0.143-2.66-0.224-4.108-0.224-0.052 0-0.104 0-0.156 0l0.008-0c-4.213 0-7.099 2.65-7.099 7.52v4.48h-4.646v5.688h4.646v14.312h5.699v-14.31h4.459l0.707-5.688h-5.168v-3.922c0-1.643 0.443-2.768 2.734-2.768z"></path>
</symbol>
<symbol id="icon-instagram" viewBox="0 0 32 32">
<path d="M31.968 9.408c-0.074-1.701-0.349-2.869-0.744-3.882-0.423-1.111-1.052-2.058-1.847-2.837l-0.001-0.001c-0.78-0.792-1.724-1.419-2.778-1.827l-0.054-0.018c-1.021-0.394-2.182-0.667-3.883-0.742-1.712-0.082-2.256-0.101-6.602-0.101-4.344 0-4.888 0.019-6.595 0.094-1.701 0.074-2.869 0.349-3.88 0.742-1.112 0.424-2.060 1.054-2.839 1.85l-0.001 0.001c-0.791 0.78-1.418 1.724-1.825 2.778l-0.018 0.054c-0.395 1.019-0.669 2.181-0.744 3.882-0.082 1.712-0.101 2.256-0.101 6.602 0 4.344 0.019 4.888 0.094 6.595 0.075 1.701 0.35 2.869 0.744 3.882 0.426 1.11 1.055 2.057 1.849 2.837l0.001 0.001c0.8 0.813 1.77 1.443 2.832 1.843 1.019 0.395 2.182 0.67 3.882 0.744 1.707 0.075 2.251 0.094 6.595 0.094 4.346 0 4.89-0.019 6.595-0.094 1.701-0.074 2.869-0.349 3.882-0.742 2.157-0.85 3.833-2.526 4.664-4.628l0.019-0.055c0.394-1.019 0.669-2.182 0.744-3.882 0.075-1.707 0.093-2.251 0.093-6.595s-0.006-4.888-0.080-6.595zM29.088 22.474c-0.070 1.563-0.333 2.406-0.552 2.97-0.551 1.399-1.638 2.486-3.001 3.024l-0.036 0.013c-0.563 0.219-1.413 0.482-2.97 0.55-1.688 0.075-2.194 0.094-6.464 0.094-4.269 0-4.782-0.019-6.464-0.094-1.563-0.069-2.406-0.331-2.97-0.55-0.721-0.269-1.334-0.676-1.836-1.192l-0.001-0.001c-0.517-0.503-0.924-1.117-1.184-1.803l-0.011-0.034c-0.218-0.563-0.48-1.413-0.549-2.97-0.075-1.688-0.094-2.195-0.094-6.464 0-4.27 0.019-4.784 0.094-6.464 0.069-1.563 0.331-2.406 0.549-2.97 0.269-0.722 0.678-1.337 1.198-1.837l0.002-0.002c0.504-0.517 1.119-0.923 1.806-1.182l0.034-0.011c0.56-0.219 1.411-0.48 2.968-0.55 1.688-0.074 2.194-0.093 6.464-0.093 4.275 0 4.782 0.019 6.464 0.093 1.562 0.069 2.406 0.331 2.97 0.55 0.693 0.256 1.325 0.662 1.837 1.194 0.531 0.52 0.938 1.144 1.195 1.84 0.218 0.56 0.48 1.411 0.549 2.968 0.075 1.688 0.094 2.194 0.094 6.464 0 4.269-0.019 4.768-0.094 6.458z"></path>
<path d="M16.059 7.782c-4.539 0.002-8.218 3.682-8.219 8.221v0c0 0 0 0.001 0 0.002 0 4.541 3.681 8.222 8.222 8.222s8.222-3.681 8.222-8.222c0-4.541-3.681-8.222-8.222-8.222-0.001 0-0.001 0-0.002 0h0zM16.059 21.334c-2.945-0-5.332-2.388-5.332-5.333s2.388-5.333 5.333-5.333c0 0 0.001 0 0.001 0h-0c2.946 0 5.334 2.388 5.334 5.334s-2.388 5.334-5.334 5.334v0zM26.525 7.458c0 1.060-0.86 1.92-1.92 1.92s-1.92-0.86-1.92-1.92v0c0-1.060 0.86-1.92 1.92-1.92s1.92 0.86 1.92 1.92v0z"></path>
</symbol>
<symbol id="icon-linkedin" viewBox="0 0 32 32">
<path d="M27.423 22.857h0.006v-8.384c0-4.101-0.883-7.259-5.678-7.259-2.304 0-3.851 1.264-4.482 2.464h-0.066v-2.081h-4.546v15.259h4.734v-7.555c0-1.99 0.377-3.914 2.841-3.914 2.427 0 2.463 2.271 2.463 4.041v7.43h4.729zM4.949 7.597h4.739v15.261h-4.739v-15.261zM7.317 0c-1.516 0-2.745 1.229-2.745 2.745v0c0 1.514 1.23 2.77 2.745 2.77 1.514 0 2.744-1.255 2.744-2.77s-1.229-2.744-2.744-2.745h-0z"></path>
</symbol>
<symbol id="icon-logo-1" viewBox="0 0 29 32">
<path d="M3.84 0.493l4.677 4.378h13.046v12.215l4.677 4.379v-20.973h-22.4z"></path>
<path d="M0 4.687v20.373h21.76v-8.098l-13.105-12.271-8.655-0.004zM17.615 22.080h-14.172v-13.702h1.002v12.774h13.17v0.928zM6.266 28.861l0.524-1.078h0.438l-0.764 1.437v0.837h-0.397v-0.837l-0.764-1.438h0.439l0.524 1.078zM8.513 29.528h-0.881l-0.184 0.529h-0.411l0.859-2.275h0.355l0.861 2.275h-0.413l-0.186-0.529zM7.743 29.21h0.659l-0.33-0.944-0.33 0.944zM10.071 29.444c0-0.105 0.029-0.202 0.086-0.289s0.17-0.193 0.339-0.314c-0.070-0.083-0.131-0.176-0.182-0.276l-0.004-0.008c-0.031-0.066-0.050-0.144-0.052-0.226v-0c0-0.178 0.054-0.319 0.163-0.422 0.108-0.104 0.254-0.156 0.437-0.156 0.166 0 0.301 0.049 0.406 0.147 0.106 0.096 0.16 0.217 0.16 0.36 0 0.001 0 0.002 0 0.003 0 0.096-0.027 0.186-0.074 0.262l0.001-0.002c-0.063 0.095-0.142 0.174-0.233 0.236l-0.003 0.002-0.155 0.112 0.44 0.518c0.063-0.124 0.095-0.264 0.095-0.417h0.33c0 0.28-0.065 0.51-0.196 0.689l0.334 0.395h-0.44l-0.128-0.152c-0.154 0.115-0.348 0.183-0.558 0.183-0.008 0-0.017-0-0.025-0l0.001 0c-0.225 0-0.405-0.060-0.54-0.178-0.124-0.11-0.202-0.27-0.202-0.447 0-0.007 0-0.014 0-0.021l-0 0.001zM10.824 29.786c0.128 0 0.248-0.043 0.359-0.128l-0.497-0.586-0.049 0.034c-0.125 0.095-0.188 0.204-0.188 0.325 0 0.106 0.034 0.191 0.102 0.256 0.066 0.061 0.155 0.099 0.253 0.099 0.007 0 0.013-0 0.020-0l-0.001 0zM10.614 28.321c0 0.087 0.054 0.197 0.161 0.33l0.173-0.119 0.049-0.039c0.059-0.052 0.097-0.128 0.097-0.212 0-0.003-0-0.005-0-0.008v0c0-0.001 0-0.002 0-0.003 0-0.059-0.026-0.113-0.067-0.149l-0-0c-0.042-0.040-0.099-0.064-0.162-0.064-0.003 0-0.006 0-0.009 0h0c-0.003-0-0.006-0-0.010-0-0.066 0-0.126 0.029-0.167 0.075l-0 0c-0.041 0.048-0.066 0.111-0.066 0.179 0 0.004 0 0.007 0 0.011v-0zM14.748 29.317c-0.023 0.243-0.113 0.433-0.269 0.569-0.156 0.135-0.364 0.203-0.623 0.203-0.005 0-0.012 0-0.018 0-0.171 0-0.33-0.048-0.466-0.13l0.004 0.002c-0.139-0.090-0.248-0.214-0.317-0.362l-0.002-0.005c-0.074-0.16-0.117-0.347-0.117-0.544 0-0.003 0-0.006 0-0.008v0-0.212c0-0.214 0.038-0.403 0.114-0.567 0.077-0.163 0.186-0.289 0.326-0.378 0.143-0.089 0.307-0.133 0.494-0.133 0.251 0 0.453 0.068 0.606 0.205s0.243 0.329 0.268 0.578h-0.394c-0.019-0.164-0.067-0.282-0.144-0.353-0.076-0.073-0.188-0.109-0.336-0.109-0.172 0-0.304 0.063-0.397 0.189-0.092 0.125-0.138 0.308-0.141 0.551v0.202c0 0.246 0.044 0.433 0.132 0.562s0.218 0.194 0.387 0.194c0.155 0 0.272-0.035 0.35-0.104s0.128-0.186 0.148-0.349h0.394zM16.918 28.98c0 0.223-0.038 0.419-0.115 0.588-0.077 0.168-0.188 0.297-0.332 0.387s-0.307 0.134-0.494 0.134c-0.184 0-0.349-0.045-0.493-0.134-0.146-0.094-0.261-0.225-0.332-0.38l-0.002-0.006c-0.075-0.163-0.119-0.354-0.119-0.555 0-0.007 0-0.015 0-0.022v0.001-0.128c0-0.223 0.038-0.419 0.117-0.588s0.19-0.3 0.333-0.389c0.144-0.090 0.308-0.136 0.493-0.136s0.35 0.045 0.493 0.134c0.143 0.088 0.255 0.216 0.333 0.384 0.078 0.166 0.118 0.361 0.118 0.583v0.127zM16.522 28.861c0-0.252-0.048-0.445-0.143-0.579-0.085-0.123-0.225-0.203-0.384-0.203-0.007 0-0.014 0-0.022 0l0.001-0c-0.005-0-0.011-0-0.016-0-0.159 0-0.3 0.080-0.384 0.201l-0.001 0.002c-0.096 0.133-0.145 0.322-0.147 0.567v0.131c0 0.25 0.049 0.443 0.146 0.58s0.233 0.205 0.406 0.205c0.175 0 0.31-0.067 0.403-0.2 0.095-0.134 0.142-0.328 0.142-0.584v-0.119z"></path>
</symbol>
<symbol id="icon-logo-2" viewBox="0 0 24 32">
<path d="M10.25 2.224h0.083c0.153 0 0.318 0.015 0.481 0.028 0.72 0.051 1.435 0.157 2.139 0.319v-1.709c-0.725-0.18-1.462-0.296-2.207-0.348-0.249-0.019-0.559-0.035-0.872-0.042l-0.021-0h-0.258c-1.494 0.005-2.983 0.195-4.429 0.565-1.781 0.446-3.347 1.095-4.785 1.937l0.085-0.046v16.957c1.287-0.707 2.779-1.299 4.347-1.698l0.133-0.029c1.102-0.291 2.388-0.494 3.708-0.568l0.051-0.002h0.051c0.213-0.011 0.424-0.017 0.643-0.018v-1.738c-1.746 0.023-3.427 0.256-5.033 0.675l0.146-0.032c-0.592 0.152-1.162 0.316-1.698 0.498l-0.611 0.205v-13.221l0.261-0.125c1.856-0.891 4.020-1.468 6.304-1.6l0.046-0.002c0.008-0.001 0.018-0.001 0.027-0.001s0.019 0 0.028 0.001l-0.001-0c0.217-0.012 0.472-0.018 0.727-0.018 0 0 0 0 0 0h0.275c0.127 0.003 0.254 0.006 0.38 0.014z"></path>
<path d="M14.557 4.014c-0.005 0-0.010 0-0.016 0-0.897 0-1.777-0.075-2.633-0.218l0.093 0.013c-0.272-0.045-0.539-0.1-0.799-0.159v16.763c1.099 0.269 2.228 0.401 3.36 0.392 1.576-0.007 3.102-0.212 4.557-0.592l-0.127 0.028c1.782-0.447 3.348-1.095 4.787-1.936l-0.086 0.046v-16.656c-1.286 0.707-2.777 1.299-4.344 1.699l-0.134 0.029c-1.521 0.386-3.087 0.586-4.657 0.591zM21.334 4.304l0.611-0.203v13.226l-0.261 0.124c-0.885 0.429-1.925 0.809-3.006 1.085l-0.117 0.025c-1.198 0.319-2.574 0.506-3.993 0.512h-0.004c-0.403 0-0.803-0.017-1.191-0.050l-0.418-0.036v-13.602l0.487 0.031c0.354 0.023 0.721 0.034 1.119 0.034 1.806-0.007 3.554-0.241 5.221-0.676l-0.145 0.032c0.764-0.197 1.331-0.369 1.889-0.559l-0.191 0.056zM1.653 25.678c-0.164-0.168-0.393-0.272-0.646-0.272-0.012 0-0.024 0-0.036 0.001l0.002-0c-0.004-0-0.009-0-0.014-0-0.136 0-0.266 0.027-0.385 0.075l0.007-0.002c-0.232 0.091-0.412 0.271-0.5 0.496l-0.002 0.006c-0.048 0.12-0.072 0.248-0.070 0.376v2.265c-0.006 0.16 0.025 0.319 0.090 0.465 0.054 0.116 0.132 0.22 0.229 0.304 0.091 0.076 0.199 0.131 0.314 0.161 0.112 0.030 0.227 0.047 0.342 0.047 0.127 0.002 0.254-0.025 0.369-0.078 0.119-0.052 0.22-0.123 0.305-0.209l0-0c0.083-0.085 0.15-0.186 0.198-0.297l0.002-0.006c0.048-0.115 0.074-0.237 0.073-0.362v-0.254h-0.599v0.202c0 0.004 0 0.009 0 0.014 0 0.068-0.013 0.132-0.036 0.192l0.001-0.004c-0.021 0.050-0.050 0.092-0.087 0.127l-0 0c-0.069 0.053-0.156 0.085-0.25 0.086h-0c-0.010 0.001-0.023 0.002-0.035 0.002-0.1 0-0.189-0.048-0.245-0.122l-0.001-0.001c-0.050-0.080-0.080-0.177-0.080-0.281 0-0.008 0-0.016 0.001-0.025l-0 0.001v-2.112c-0-0.006-0-0.014-0-0.021 0-0.115 0.027-0.224 0.076-0.321l-0.002 0.004c0.055-0.084 0.149-0.139 0.256-0.139 0.013 0 0.026 0.001 0.038 0.002l-0.001-0c0.003-0 0.007-0 0.011-0 0.104 0 0.197 0.050 0.256 0.127l0.001 0.001c0.062 0.080 0.099 0.181 0.099 0.292 0 0.004-0 0.009-0 0.013v-0.001 0.196h0.593v-0.231c0-0.003 0-0.006 0-0.010 0-0.139-0.027-0.272-0.076-0.393l0.003 0.007c-0.047-0.124-0.115-0.23-0.201-0.319l0 0zM5.21 25.652c-0.183-0.154-0.421-0.247-0.681-0.249h-0c-0.122 0-0.243 0.022-0.357 0.063-0.247 0.086-0.442 0.266-0.546 0.497l-0.002 0.006c-0.060 0.139-0.091 0.289-0.088 0.44v2.172c-0.004 0.153 0.026 0.305 0.087 0.445 0.054 0.117 0.133 0.221 0.232 0.304 0.092 0.085 0.199 0.149 0.316 0.191 0.115 0.042 0.235 0.063 0.357 0.064 0.261-0.001 0.5-0.097 0.682-0.256l-0.001 0.001c0.095-0.085 0.173-0.188 0.226-0.304 0.062-0.14 0.091-0.292 0.087-0.445v-2.173c0-0.006 0-0.013 0-0.020 0-0.151-0.032-0.295-0.090-0.425l0.003 0.007c-0.056-0.124-0.132-0.23-0.225-0.317l-0.001-0zM4.93 28.581c0.001 0.010 0.002 0.022 0.002 0.034 0 0.11-0.046 0.21-0.12 0.28l-0 0c-0.076 0.063-0.174 0.102-0.282 0.102s-0.206-0.039-0.283-0.103l0.001 0.001c-0.074-0.071-0.12-0.171-0.12-0.281 0-0.012 0-0.023 0.001-0.034l-0 0.001v-2.174c-0.001-0.010-0.001-0.022-0.001-0.034 0-0.11 0.046-0.21 0.12-0.28l0-0c0.076-0.063 0.174-0.102 0.282-0.102s0.206 0.038 0.283 0.102l-0.001-0.001c0.074 0.071 0.12 0.171 0.12 0.281 0 0.012-0 0.023-0.001 0.034l0-0.001v2.174zM9.882 29.551v-4.114h-0.575l-0.757 2.178h-0.010l-0.763-2.177h-0.569v4.114h0.594v-2.503h0.011l0.581 1.769h0.296l0.587-1.769h0.010v2.503h0.594zM13.258 25.727c-0.090-0.1-0.203-0.177-0.33-0.223l-0.006-0.002c-0.122-0.041-0.262-0.064-0.408-0.064-0.008 0-0.016 0-0.024 0l0.001-0h-0.883v4.114h0.592v-1.606h0.306c0.185 0.008 0.369-0.030 0.535-0.113 0.135-0.074 0.247-0.182 0.325-0.314 0.068-0.109 0.115-0.231 0.136-0.359 0.023-0.155 0.034-0.311 0.032-0.467 0.001-0.020 0.001-0.044 0.001-0.068 0-0.184-0.021-0.364-0.062-0.536l0.003 0.016c-0.042-0.148-0.118-0.276-0.219-0.378l0 0zM12.952 26.981c-0.003 0.078-0.023 0.152-0.056 0.217l0.001-0.003c-0.034 0.064-0.087 0.114-0.151 0.144l-0.002 0.001c-0.073 0.033-0.158 0.052-0.248 0.052-0.011 0-0.022-0-0.033-0.001l0.002 0h-0.271v-1.399h0.306c0.008-0 0.018-0.001 0.028-0.001 0.087 0 0.17 0.019 0.243 0.054l-0.004-0.001c0.061 0.035 0.109 0.087 0.138 0.149l0.001 0.002c0.033 0.072 0.050 0.15 0.052 0.229v0.273c0 0.095 0.006 0.194 0 0.283h-0.006zM16.065 25.438h-0.486l-0.917 4.113h0.593l0.174-0.884h0.808l0.174 0.883h0.592l-0.939-4.113zM15.518 28.107l0.292-1.491h0.011l0.29 1.491h-0.592zM19.894 27.916h-0.011l-0.895-2.478h-0.569v4.114h0.593v-2.474h0.012l0.906 2.473h0.557v-4.114h-0.592v2.479zM23.516 25.438l-0.477 1.635h-0.012l-0.477-1.636h-0.627l0.814 2.375v1.739h0.592v-1.739l0.814-2.375h-0.628zM0 30.713h0.286v0.793h0.194v-0.793h0.284v-0.162h-0.763v0.163zM2.401 30.551l-0.374 0.955h0.206l0.080-0.217h0.385l0.083 0.217h0.211l-0.385-0.955h-0.206zM2.371 31.128l0.131-0.354 0.131 0.354h-0.263zM4.775 31.154h0.223v0.123c-0.062 0.050-0.142 0.080-0.229 0.081h-0c-0.004 0-0.009 0-0.014 0-0.077 0-0.146-0.036-0.191-0.091l-0-0c-0.045-0.063-0.072-0.142-0.072-0.227 0-0.008 0-0.015 0.001-0.023l-0 0.001c0-0.213 0.093-0.319 0.278-0.319 0.006-0.001 0.013-0.001 0.020-0.001 0.095 0 0.175 0.064 0.198 0.152l0 0.001 0.191-0.036c-0.041-0.187-0.177-0.281-0.409-0.281-0.004-0-0.008-0-0.013-0-0.125 0-0.239 0.047-0.325 0.124l0-0c-0.087 0.085-0.14 0.203-0.14 0.333 0 0.012 0 0.024 0.001 0.036l-0-0.002c-0 0.007-0 0.014-0 0.022 0 0.129 0.047 0.247 0.125 0.337l-0.001-0.001c0.085 0.087 0.204 0.141 0.335 0.141 0.011 0 0.022-0 0.033-0.001l-0.001 0c0.005 0 0.011 0 0.017 0 0.151 0 0.289-0.058 0.393-0.152l-0 0v-0.377h-0.418v0.161zM7.199 30.551h-0.196v0.955h0.676v-0.162h-0.481v-0.792zM9.249 30.551h-0.196v0.955h0.196v-0.955zM11.253 31.189l-0.396-0.638h-0.189v0.955h0.181v-0.624l0.388 0.624h0.194v-0.955h-0.179v0.638zM13.064 31.085h0.481v-0.162h-0.481v-0.209h0.517v-0.162h-0.713v0.955h0.733v-0.162h-0.537v-0.258zM17.456 30.927h-0.38v-0.377h-0.194v0.955h0.194v-0.417h0.38v0.417h0.194v-0.955h-0.194v0.377zM19.279 31.085h0.483v-0.162h-0.483v-0.209h0.519v-0.162h-0.712v0.955h0.732v-0.162h-0.537v-0.258zM21.75 31.085c0.168-0.026 0.254-0.115 0.254-0.266 0.001-0.008 0.002-0.018 0.002-0.028 0-0.076-0.038-0.144-0.096-0.185l-0.001-0c-0.071-0.036-0.156-0.057-0.245-0.057-0.013 0-0.026 0-0.039 0.001l0.002-0h-0.409v0.955h0.194v-0.399h0.038c0.005-0 0.011-0.001 0.016-0.001 0.038 0 0.074 0.008 0.106 0.022l-0.002-0.001c0.029 0.018 0.052 0.041 0.068 0.069l0 0.001 0.211 0.304h0.232l-0.118-0.187c-0.053-0.093-0.125-0.17-0.211-0.228l-0.002-0.002zM21.554 30.952h-0.143v-0.24h0.153c0.012-0.001 0.026-0.002 0.040-0.002 0.056 0 0.11 0.009 0.16 0.026l-0.004-0.001c0.026 0.023 0.042 0.056 0.042 0.094 0 0.041-0.020 0.078-0.051 0.101l-0 0c-0.048 0.015-0.104 0.024-0.162 0.024-0.012 0-0.025-0-0.037-0.001l0.002 0zM23.614 31.085h0.481v-0.162h-0.481v-0.209h0.519v-0.162h-0.714v0.955h0.733v-0.162h-0.537v-0.258z"></path>
</symbol>
<symbol id="icon-logo-3" viewBox="0 0 31 32">
<path d="M4.722 31.3c0.023 0 0.044 0.010 0.060 0.025v0l0.153 0.159c-0.119 0.128-0.266 0.231-0.431 0.301-0.194 0.076-0.401 0.113-0.61 0.108-0.009 0-0.019 0-0.030 0-0.196 0-0.383-0.037-0.555-0.105l0.010 0.004c-0.33-0.132-0.586-0.392-0.709-0.716l-0.003-0.009c-0.067-0.182-0.1-0.372-0.097-0.565-0.004-0.194 0.032-0.386 0.104-0.566 0.067-0.164 0.168-0.313 0.298-0.44 0.13-0.124 0.287-0.222 0.459-0.287 0.171-0.064 0.368-0.101 0.574-0.101 0.006 0 0.012 0 0.018 0h-0.001c0.010-0 0.022-0 0.034-0 0.185 0 0.362 0.034 0.526 0.096l-0.010-0.003c0.151 0.062 0.29 0.148 0.412 0.255l-0.129 0.17c-0.009 0.012-0.020 0.022-0.032 0.029l-0 0c-0.013 0.009-0.028 0.014-0.045 0.014-0.002 0-0.004-0-0.006-0l0 0c-0.021-0.001-0.040-0.008-0.056-0.018l0 0-0.068-0.045-0.096-0.058c-0.087-0.046-0.189-0.081-0.296-0.1l-0.006-0.001c-0.064-0.012-0.138-0.019-0.214-0.019-0.005 0-0.010 0-0.014 0h0.001c-0.004-0-0.009-0-0.014-0-0.148 0-0.289 0.028-0.419 0.079l0.008-0.003c-0.13 0.050-0.241 0.122-0.334 0.213l0-0c-0.092 0.094-0.165 0.207-0.214 0.333l-0.002 0.007c-0.050 0.129-0.079 0.277-0.079 0.433 0 0.005 0 0.010 0 0.015v-0.001c-0.002 0.155 0.025 0.309 0.079 0.455 0.046 0.124 0.119 0.239 0.212 0.337 0.088 0.092 0.196 0.164 0.318 0.21 0.125 0.048 0.259 0.073 0.394 0.071 0.078 0.002 0.156-0.004 0.234-0.014 0.127-0.015 0.247-0.056 0.354-0.121 0.054-0.034 0.104-0.071 0.151-0.112 0.019-0.017 0.044-0.029 0.072-0.030h0zM9.144 30.503c0.002 0.191-0.033 0.381-0.103 0.561-0.067 0.17-0.165 0.316-0.288 0.435l-0 0c-0.126 0.122-0.276 0.219-0.444 0.283l-0.009 0.003c-0.173 0.064-0.373 0.101-0.582 0.101s-0.409-0.037-0.594-0.105l0.012 0.004c-0.34-0.13-0.605-0.39-0.737-0.718l-0.003-0.009c-0.065-0.167-0.103-0.36-0.103-0.562s0.038-0.395 0.107-0.573l-0.004 0.011c0.065-0.164 0.164-0.314 0.29-0.442 0.129-0.12 0.282-0.214 0.45-0.275 0.173-0.065 0.373-0.103 0.582-0.103s0.409 0.038 0.594 0.107l-0.012-0.004c0.17 0.065 0.324 0.162 0.452 0.287 0.127 0.125 0.224 0.273 0.289 0.435 0.066 0.162 0.104 0.35 0.104 0.547 0 0.006-0 0.012-0 0.018v-0.001zM8.742 30.503c0-0.007 0-0.016 0-0.024 0-0.153-0.027-0.3-0.076-0.436l0.003 0.009c-0.046-0.131-0.116-0.244-0.205-0.338l0 0c-0.089-0.091-0.197-0.163-0.318-0.21l-0.006-0.002c-0.126-0.047-0.271-0.074-0.423-0.074s-0.297 0.027-0.432 0.077l0.009-0.003c-0.25 0.097-0.442 0.296-0.528 0.544l-0.002 0.006c-0.046 0.135-0.073 0.29-0.073 0.451s0.027 0.316 0.076 0.461l-0.003-0.010c0.088 0.254 0.28 0.452 0.524 0.546l0.006 0.002c0.273 0.096 0.573 0.096 0.846 0 0.124-0.047 0.234-0.119 0.324-0.211 0.092-0.098 0.162-0.213 0.205-0.337 0.052-0.146 0.076-0.298 0.073-0.451zM12.16 30.976l0.041 0.101c0.015-0.036 0.028-0.068 0.044-0.101 0.015-0.034 0.031-0.067 0.050-0.099l0.978-1.676c0.019-0.028 0.037-0.047 0.056-0.052 0.020-0.006 0.043-0.009 0.067-0.009 0.005 0 0.010 0 0.014 0l-0.001-0h0.289v2.725h-0.342v-2.089c-0.001-0.014-0.001-0.030-0.001-0.047s0.001-0.033 0.001-0.049l-0 0.002-0.984 1.699c-0.013 0.026-0.033 0.048-0.057 0.062l-0.001 0c-0.024 0.014-0.052 0.022-0.082 0.022-0.001 0-0.001 0-0.002 0h-0.055c-0.030 0-0.060-0.007-0.084-0.022s-0.044-0.036-0.057-0.062l-0-0.001-1.013-1.709v2.188h-0.331v-2.72h0.289c0.004-0 0.009-0 0.014-0 0.024 0 0.047 0.003 0.069 0.010l-0.002-0c0.023 0.011 0.042 0.029 0.053 0.051l0 0.001 0.999 1.677c0.018 0.028 0.035 0.060 0.048 0.093l0.001 0.004zM15.841 30.841v1.021h-0.383v-2.721h0.854c0.161-0.003 0.322 0.017 0.476 0.060 0.124 0.033 0.239 0.091 0.337 0.169 0.083 0.072 0.148 0.161 0.19 0.263l0.002 0.005c0.045 0.11 0.067 0.228 0.066 0.348 0.002 0.119-0.022 0.238-0.071 0.348-0.045 0.104-0.116 0.197-0.206 0.272-0.098 0.082-0.214 0.143-0.339 0.18-0.149 0.045-0.305 0.066-0.461 0.063l-0.463-0.007zM15.841 30.549h0.464c0.1 0.001 0.201-0.013 0.296-0.042 0.083-0.027 0.154-0.067 0.215-0.118l-0.001 0.001c0.056-0.048 0.1-0.109 0.129-0.177l0.001-0.003c0.029-0.066 0.046-0.142 0.046-0.223 0-0.002 0-0.005-0-0.007v0c0.001-0.008 0.001-0.018 0.001-0.028 0-0.070-0.015-0.136-0.041-0.197l0.001 0.003c-0.032-0.073-0.077-0.136-0.133-0.186l-0.001-0c-0.126-0.093-0.284-0.148-0.455-0.148-0.021 0-0.041 0.001-0.062 0.002l0.003-0h-0.464v1.122zM20.987 31.865h-0.302c-0.002 0-0.004 0-0.006 0-0.030 0-0.057-0.010-0.079-0.026l0 0c-0.021-0.017-0.038-0.038-0.049-0.062l-0-0.001-0.26-0.659h-1.307l-0.27 0.659c-0.011 0.025-0.027 0.045-0.047 0.061l-0 0c-0.023 0.017-0.051 0.028-0.082 0.028-0.001 0-0.003-0-0.004-0h-0.302l1.148-2.726h0.398l1.164 2.726zM19.092 30.853h1.079l-0.455-1.109c-0.030-0.070-0.060-0.155-0.083-0.243l-0.003-0.013-0.044 0.143c-0.015 0.049-0.029 0.087-0.045 0.124l0.003-0.009-0.452 1.107zM22.64 29.152c0.023 0.012 0.043 0.029 0.058 0.049l1.674 2.054v-2.115h0.342v2.725h-0.191c-0.001 0-0.003 0-0.005 0-0.027 0-0.052-0.006-0.074-0.017l0.001 0c-0.024-0.013-0.044-0.030-0.061-0.050l-0-0-1.674-2.052c0.002 0.031 0.002 0.063 0 0.094v2.025h-0.342v-2.724h0.203c0.024-0.001 0.047 0.003 0.068 0.012zM27.537 30.781v1.082h-0.383v-1.082l-1.058-1.641h0.342c0.003-0 0.005-0 0.008-0 0.028 0 0.053 0.009 0.075 0.024l-0-0c0.021 0.017 0.038 0.037 0.052 0.060l0.001 0.001 0.662 1.059c0.026 0.045 0.049 0.087 0.068 0.127s0.034 0.077 0.048 0.115l0.050-0.117c0.019-0.043 0.040-0.085 0.066-0.125l0.653-1.066c0.014-0.022 0.031-0.041 0.050-0.058l0-0c0.021-0.017 0.047-0.027 0.076-0.027 0.002 0 0.004 0 0.006 0h0.346l-1.060 1.648zM11.971 24.566c0.167 0.020 0.335 0.037 0.506 0.051 2.582-1.089 4.767-2.871 6.281-5.123s2.29-4.875 2.231-7.541l-2.846-2.682c0.189 0.884 0.297 1.9 0.297 2.941 0 1.994-0.396 3.895-1.114 5.629l0.036-0.098c-1.090 2.701-2.957 5.063-5.39 6.823z"></path>
<path d="M10.954 24.441l0.077 0.015c2.6-1.753 4.583-4.2 5.692-7.026 0.627-1.546 0.991-3.339 0.991-5.217 0-1.282-0.17-2.525-0.487-3.707l0.023 0.1-4.054-3.82c1.639 3.14 2.3 6.654 1.904 10.134s-1.834 6.782-4.144 9.522zM24.704 15.102c-0.688 2.928-2.361 5.57-4.77 7.531-0.664 0.547-1.405 1.055-2.19 1.495l-0.076 0.039c2.037-0.57 3.802-1.538 5.286-2.822l-0.017 0.015c1.464-1.265 2.623-2.841 3.381-4.628l0.031-0.082-1.645-1.548z"></path>
<path d="M24.060 14.672l-2.341-2.207c-0.045 2.515-0.804 4.973-2.198 7.118s-3.373 3.9-5.729 5.080h0.012c0.525 0 1.049-0.030 1.572-0.088 2.203-0.848 4.148-2.195 5.663-3.923s2.553-3.783 3.021-5.981zM11.294 3.175l-2.793-2.634c-2.497 0.908-4.644 2.506-6.16 4.584-1.517 2.079-2.333 4.54-2.34 7.062 0.010 2.786 1.005 5.491 2.829 7.684s4.372 3.751 7.242 4.427c2.562-2.941 4.061-6.574 4.281-10.373s-0.851-7.564-3.059-10.75zM30.512 14.266c-0.010-3.307-1.409-6.474-3.89-8.813s-5.843-3.655-9.352-3.665c-0.006 0-0.013 0-0.021 0-1.694 0-3.316 0.305-4.816 0.862l0.096-0.031 17.099 16.112c0.559-1.32 0.884-2.854 0.884-4.465 0-0 0-0 0-0.001v0z"></path>
</symbol>
<symbol id="icon-logo-4" viewBox="0 0 60 32">
<path d="M9.229 9.983h-0.002c-1.683 0-3.048 1.315-3.048 2.938v0.002c0 1.622 1.365 2.938 3.048 2.938h0.002c1.683 0 3.048-1.315 3.048-2.938v-0.002c0-1.622-1.365-2.938-3.048-2.938zM31.73 9.044c-0.005-2.254-0.936-4.414-2.59-6.008-1.652-1.594-3.894-2.492-6.232-2.497-2.339 0.004-4.581 0.901-6.236 2.495s-2.585 3.754-2.59 6.009v12.428s17.645-1.894 17.647-12.426v-0.002zM0 25.551c0.004 1.568 0.652 3.071 1.802 4.18 1.125 1.076 2.653 1.738 4.336 1.738 0 0 0.001 0 0.001 0h-0c0 0 0 0 0.001 0 1.682 0 3.21-0.662 4.337-1.74l-0.002 0.002c1.151-1.109 1.799-2.611 1.803-4.179v-8.647s-12.278 1.319-12.278 8.645zM6.14 27.1c-0.319 0-0.63-0.091-0.894-0.26-0.261-0.169-0.465-0.406-0.588-0.686l-0.004-0.010c-0.121-0.283-0.153-0.595-0.092-0.895 0.067-0.314 0.223-0.585 0.44-0.793l0.001-0.001c0.225-0.217 0.511-0.365 0.823-0.424s0.635-0.029 0.929 0.089c0.294 0.117 0.545 0.316 0.722 0.571 0.169 0.241 0.271 0.54 0.271 0.863 0 0.214-0.045 0.418-0.125 0.602l0.004-0.010c-0.085 0.197-0.203 0.364-0.347 0.504l-0 0c-0.15 0.145-0.327 0.26-0.522 0.338-0.182 0.075-0.394 0.118-0.615 0.118-0.001 0-0.001 0-0.002 0h0v-0.006zM18.672 26.174h-1.256v1.297h-0.655v-3.173h2.067v0.53h-1.412v0.819h1.255v0.528zM21.815 25.956c0 0.313-0.056 0.586-0.166 0.822s-0.269 0.417-0.476 0.545c-0.194 0.121-0.43 0.192-0.682 0.192-0.009 0-0.017-0-0.025-0l0.001 0c-0.263 0-0.498-0.063-0.704-0.19-0.209-0.131-0.373-0.315-0.477-0.533l-0.003-0.008c-0.109-0.23-0.172-0.499-0.172-0.783 0-0.010 0-0.020 0-0.029l-0 0.001v-0.156c0-0.313 0.056-0.588 0.168-0.825 0.113-0.238 0.272-0.42 0.477-0.547 0.206-0.128 0.442-0.192 0.707-0.192s0.499 0.064 0.704 0.192c0.206 0.127 0.365 0.309 0.477 0.547s0.17 0.511 0.17 0.822v0.141zM21.153 25.812c0-0.333-0.060-0.586-0.179-0.759-0.106-0.157-0.284-0.26-0.485-0.26-0.009 0-0.018 0-0.027 0.001l0.001-0c-0.007-0-0.016-0.001-0.025-0.001-0.2 0-0.377 0.101-0.482 0.255l-0.001 0.002c-0.119 0.17-0.18 0.42-0.182 0.75v0.155c0 0.324 0.060 0.576 0.179 0.755s0.291 0.268 0.515 0.268c0.008 0 0.016 0.001 0.025 0.001 0.2 0 0.376-0.102 0.479-0.256l0.001-0.002c0.118-0.173 0.177-0.424 0.179-0.754v-0.155zM23.936 26.638c0-0.005 0-0.012 0-0.018 0-0.108-0.051-0.204-0.131-0.264l-0.001-0.001c-0.087-0.067-0.244-0.137-0.47-0.21-0.209-0.065-0.388-0.139-0.558-0.227l0.019 0.009c-0.36-0.195-0.541-0.457-0.541-0.787 0-0.171 0.048-0.324 0.144-0.458s0.236-0.24 0.417-0.316c0.182-0.075 0.385-0.113 0.61-0.113s0.429 0.042 0.606 0.124c0.178 0.082 0.315 0.197 0.412 0.347 0.099 0.15 0.149 0.32 0.149 0.51h-0.655c0-0.145-0.045-0.258-0.137-0.338s-0.22-0.122-0.386-0.122c-0.16 0-0.284 0.034-0.372 0.103-0.081 0.058-0.134 0.152-0.134 0.259 0 0.002 0 0.005 0 0.007v-0c0 0.104 0.052 0.19 0.155 0.26 0.105 0.070 0.258 0.135 0.461 0.196 0.372 0.112 0.643 0.251 0.813 0.417s0.255 0.372 0.255 0.618c0 0.275-0.104 0.491-0.312 0.647s-0.487 0.234-0.839 0.234c-0.244 0-0.467-0.045-0.667-0.133-0.189-0.080-0.344-0.207-0.458-0.365l-0.002-0.003c-0.099-0.147-0.157-0.328-0.157-0.522 0-0.007 0-0.013 0-0.020l-0 0.001h0.656c0 0.351 0.21 0.526 0.628 0.526 0.156 0 0.277-0.031 0.365-0.094 0.079-0.057 0.131-0.149 0.131-0.253 0-0.005-0-0.009-0-0.014l0 0.001zM27.426 24.827h-0.972v2.644h-0.654v-2.644h-0.959v-0.53h2.586v0.53zM29.712 26.096h-1.256v0.85h1.474v0.525h-2.128v-3.173h2.124v0.53h-1.47v0.756h1.256v0.513zM31.489 26.309h-0.521v1.162h-0.655v-3.173h1.18c0.374 0 0.664 0.083 0.868 0.251s0.305 0.403 0.305 0.708c0 0.216-0.048 0.397-0.141 0.543-0.105 0.152-0.25 0.271-0.419 0.341l-0.006 0.002 0.687 1.297v0.030h-0.703l-0.595-1.162zM30.968 25.779h0.528c0.164 0 0.291-0.042 0.381-0.124 0.084-0.082 0.136-0.197 0.136-0.323 0-0.008-0-0.017-0.001-0.025l0 0.001c0-0.15-0.043-0.268-0.129-0.354-0.084-0.086-0.214-0.128-0.39-0.128h-0.526v0.953zM34.931 26.352v1.119h-0.655v-3.173h1.239c0.238 0 0.447 0.043 0.628 0.13s0.321 0.212 0.418 0.373c0.097 0.16 0.146 0.342 0.146 0.548 0 0.311-0.106 0.557-0.32 0.737-0.212 0.179-0.506 0.268-0.883 0.268h-0.573zM34.931 25.823h0.584c0.173 0 0.304-0.040 0.394-0.122 0.092-0.081 0.138-0.197 0.138-0.348 0-0.007 0.001-0.015 0.001-0.023 0-0.137-0.053-0.262-0.139-0.355l0 0c-0.092-0.097-0.218-0.146-0.38-0.149h-0.599v0.997zM39.069 26.096h-1.255v0.85h1.474v0.525h-2.128v-3.173h2.124v0.53h-1.469v0.756h1.255v0.513zM42.104 24.827h-0.972v2.644h-0.655v-2.644h-0.959v-0.53h2.585v0.53zM44.388 26.096h-1.255v0.85h1.474v0.525h-2.128v-3.173h2.124v0.53h-1.47v0.756h1.256v0.513zM46.166 26.309h-0.521v1.162h-0.654v-3.173h1.18c0.375 0 0.665 0.083 0.868 0.251s0.305 0.403 0.305 0.708c0 0.216-0.047 0.397-0.141 0.543-0.105 0.152-0.25 0.27-0.419 0.341l-0.006 0.002 0.686 1.297v0.030h-0.702l-0.595-1.162zM45.645 25.779h0.528c0.164 0 0.29-0.042 0.381-0.124 0.084-0.082 0.135-0.196 0.135-0.322 0-0.009-0-0.017-0.001-0.026l0 0.001c0-0.15-0.042-0.268-0.128-0.354s-0.214-0.128-0.391-0.128h-0.525v0.953zM49.488 26.638c0-0.005 0-0.012 0-0.018 0-0.108-0.051-0.204-0.131-0.264l-0.001-0.001c-0.087-0.067-0.244-0.137-0.47-0.21-0.209-0.065-0.388-0.139-0.558-0.227l0.019 0.009c-0.36-0.195-0.541-0.457-0.541-0.787 0-0.171 0.048-0.324 0.144-0.458s0.236-0.24 0.417-0.316c0.181-0.075 0.385-0.113 0.61-0.113s0.429 0.042 0.606 0.124c0.177 0.082 0.315 0.197 0.412 0.347 0.099 0.15 0.148 0.32 0.148 0.51h-0.654c0-0.145-0.045-0.258-0.137-0.338s-0.22-0.122-0.386-0.122c-0.16 0-0.284 0.034-0.373 0.103-0.081 0.058-0.133 0.152-0.133 0.258 0 0.003 0 0.005 0 0.008v-0c0 0.104 0.052 0.19 0.155 0.26 0.105 0.070 0.258 0.135 0.46 0.196 0.372 0.112 0.644 0.251 0.813 0.417s0.255 0.372 0.255 0.618c0 0.275-0.104 0.491-0.312 0.647s-0.487 0.234-0.839 0.234c-0.244 0-0.467-0.045-0.667-0.133-0.188-0.080-0.344-0.207-0.458-0.365l-0.002-0.003c-0.099-0.147-0.157-0.328-0.157-0.522 0-0.007 0-0.013 0-0.020l-0 0.001h0.656c0 0.351 0.21 0.526 0.628 0.526 0.156 0 0.277-0.031 0.365-0.094 0.079-0.057 0.13-0.149 0.13-0.253 0-0.005-0-0.009-0-0.014l0 0.001z"></path>
</symbol>
<symbol id="icon-logo-5" viewBox="0 0 39 32">
<path d="M2.992 26.395c0.153 0.189 0.235 0.425 0.231 0.667 0.001 0.016 0.001 0.034 0.001 0.053 0 0.314-0.138 0.596-0.357 0.788l-0.001 0.001c-0.298 0.223-0.667 0.332-1.039 0.307h-1.826v-4.223h1.789c0.031-0.002 0.067-0.003 0.103-0.003 0.333 0 0.642 0.106 0.893 0.287l-0.005-0.003c0.213 0.179 0.348 0.445 0.348 0.743 0 0.017-0 0.034-0.001 0.050l0-0.002c0.001 0.013 0.001 0.029 0.001 0.044 0 0.228-0.078 0.438-0.21 0.604l0.002-0.002c-0.137 0.164-0.324 0.282-0.538 0.329l-0.006 0.001c0.242 0.044 0.461 0.172 0.617 0.361zM0.85 25.758h0.763c0.174 0.013 0.347-0.037 0.487-0.14 0.102-0.092 0.166-0.225 0.166-0.372 0-0.014-0.001-0.029-0.002-0.043l0 0.002c0.001-0.011 0.001-0.023 0.001-0.036 0-0.148-0.063-0.282-0.163-0.376l-0-0c-0.122-0.091-0.275-0.145-0.441-0.145-0.021 0-0.042 0.001-0.062 0.003l0.003-0h-0.751v1.108zM2.175 27.378c0.112-0.097 0.182-0.238 0.182-0.397 0-0.011-0-0.023-0.001-0.034l0 0.002c0.001-0.009 0.001-0.020 0.001-0.031 0-0.161-0.072-0.305-0.185-0.402l-0.001-0.001c-0.13-0.097-0.294-0.155-0.471-0.155-0.017 0-0.034 0.001-0.051 0.002l0.002-0h-0.801v1.162h0.812c0.183 0.011 0.364-0.041 0.513-0.147zM6.649 28.211l-0.995-1.651h-0.374v1.651h-0.856v-4.223h1.62c0.033-0.002 0.072-0.004 0.112-0.004 0.387 0 0.742 0.137 1.020 0.365l-0.003-0.002c0.239 0.242 0.387 0.575 0.387 0.943 0 0.303-0.1 0.582-0.269 0.807l0.002-0.003c-0.2 0.228-0.473 0.38-0.773 0.429l1.060 1.688h-0.931zM5.279 25.985h0.7c0.487 0 0.729-0.213 0.729-0.639 0.001-0.011 0.001-0.023 0.001-0.036 0-0.171-0.069-0.325-0.18-0.438l0 0c-0.131-0.108-0.3-0.174-0.485-0.174-0.023 0-0.046 0.001-0.069 0.003l0.003-0h-0.709l0.009 1.285zM11.327 27.361h-1.705l-0.301 0.85h-0.897l1.567-4.176h0.97l1.56 4.176h-0.897l-0.295-0.85zM11.099 26.721l-0.623-1.782-0.623 1.782h1.247zM17.184 28.211h-0.851l-1.905-2.872v2.872h-0.847v-4.223h0.847l1.905 2.889v-2.889h0.85v4.223zM22.033 27.2c-0.179 0.32-0.442 0.575-0.759 0.74l-0.010 0.005c-0.329 0.169-0.718 0.268-1.129 0.268-0.023 0-0.046-0-0.069-0.001l0.003 0h-1.513v-4.223h1.513c0.020-0.001 0.043-0.001 0.066-0.001 0.411 0 0.799 0.096 1.143 0.268l-0.015-0.007c0.325 0.163 0.593 0.42 0.769 0.737 0.168 0.322 0.266 0.703 0.266 1.108s-0.098 0.785-0.272 1.121l0.006-0.014zM21.061 27.099c0.233-0.269 0.375-0.622 0.375-1.008s-0.142-0.739-0.377-1.010l0.002 0.002c-0.259-0.225-0.599-0.362-0.971-0.362-0.033 0-0.065 0.001-0.098 0.003l0.004-0h-0.59v2.733h0.591c0.028 0.002 0.060 0.003 0.093 0.003 0.372 0 0.712-0.137 0.973-0.363l-0.002 0.002zM11.859 0.498s10.968 4.112 10.736 10.062v10.064s-10.96-4.113-10.731-10.063l-0.005-10.063zM32.365 18.267c1.967-1.359 4.339-2.272 6.903-2.543l0.066-0.006v-3.15c-2.926 1.138-5.317 3.119-6.934 5.643l-0.034 0.057z"></path>
<path d="M31.12 19.216c1.723-3.385 4.604-5.973 8.11-7.276l0.103-0.033v-9.077s-15.62 5.857-15.289 14.331v14.328s0.696-0.262 1.791-0.753c0-0.458 0-0.92 0.049-1.384 0.348-4.082 2.3-7.65 5.214-10.115l0.022-0.018z"></path>
<path d="M29.635 24.539c0.082-0.993 0.265-1.977 0.547-2.933-1.817 2.114-3.010 4.812-3.263 7.778l-0.004 0.051c-0.023 0.272-0.035 0.545-0.041 0.825 1.276-0.607 2.26-1.131 3.222-1.689l-0.218 0.117c-0.187-0.88-0.294-1.89-0.294-2.926 0-0.431 0.018-0.857 0.055-1.279l-0.004 0.055zM30.256 24.591c-0.031 0.348-0.048 0.753-0.048 1.161 0 0.918 0.088 1.815 0.256 2.684l-0.014-0.088c4.267-2.535 9.063-6.453 8.878-11.188v-0.413c-3.173 0.36-5.973 1.729-8.126 3.772l0.006-0.006c-0.491 1.195-0.829 2.58-0.948 4.027l-0.003 0.050z"></path>
</symbol>
<symbol id="icon-logo-6" viewBox="0 0 62 32">
<path d="M31.123 15.211c-0.251-0.355-0.401-0.797-0.401-1.274 0-0.050 0.002-0.099 0.005-0.148l-0 0.007v-2.052c0-0.629 0.132-1.107 0.394-1.434s0.715-0.49 1.356-0.488c0.602 0 1.030 0.139 1.282 0.417 0.275 0.355 0.41 0.79 0.379 1.227v0.483h-1.077v-0.489c0.003-0.16-0.007-0.32-0.031-0.478-0.017-0.114-0.073-0.212-0.153-0.283l-0-0c-0.096-0.070-0.215-0.112-0.345-0.112-0.016 0-0.032 0.001-0.047 0.002l0.002-0c-0.014-0.001-0.029-0.002-0.045-0.002-0.137 0-0.264 0.044-0.367 0.12l0.002-0.001c-0.090 0.080-0.154 0.188-0.178 0.31l-0.001 0.004c-0.031 0.167-0.045 0.337-0.042 0.508v2.49c-0.002 0.028-0.003 0.062-0.003 0.095 0 0.22 0.052 0.428 0.145 0.612l-0.004-0.008c0.054 0.074 0.128 0.132 0.216 0.169 0.063 0.027 0.137 0.043 0.214 0.043 0.022 0 0.045-0.001 0.066-0.004l-0.003 0c0.013 0.001 0.029 0.002 0.044 0.002 0.127 0 0.245-0.043 0.338-0.115l-0.001 0.001c0.084-0.077 0.142-0.182 0.16-0.3l0-0.003c0.026-0.166 0.037-0.333 0.034-0.499v-0.505h1.077v0.461c0.003 0.038 0.004 0.081 0.004 0.126 0 0.438-0.141 0.842-0.381 1.171l0.004-0.006c-0.247 0.305-0.669 0.457-1.288 0.457s-1.088-0.163-1.354-0.501zM35.608 15.232c-0.272-0.32-0.408-0.785-0.408-1.401v-2.158c0-0.609 0.136-1.071 0.408-1.384s0.726-0.468 1.364-0.467c0.633 0 1.085 0.156 1.358 0.467 0.271 0.313 0.41 0.774 0.41 1.384v2.158c0 0.61-0.139 1.078-0.415 1.398-0.277 0.322-0.727 0.483-1.354 0.483s-1.090-0.163-1.364-0.48zM37.473 14.714c0.097-0.2 0.142-0.419 0.129-0.639v-2.643c0.001-0.021 0.002-0.046 0.002-0.071 0-0.202-0.048-0.393-0.133-0.562l0.003 0.007c-0.056-0.076-0.13-0.135-0.216-0.171l-0.003-0.001c-0.062-0.026-0.135-0.042-0.211-0.042-0.026 0-0.051 0.002-0.076 0.005l0.003-0c-0.022-0.003-0.048-0.005-0.073-0.005-0.076 0-0.149 0.015-0.215 0.043l0.004-0.001c-0.090 0.038-0.164 0.096-0.22 0.17l-0.001 0.001c-0.098 0.195-0.143 0.41-0.129 0.626v2.655c-0.014 0.22 0.031 0.439 0.129 0.639 0.062 0.066 0.138 0.12 0.222 0.156l0.004 0.002c0.082 0.036 0.177 0.056 0.277 0.056s0.195-0.021 0.281-0.058l-0.005 0.002c0.089-0.038 0.164-0.091 0.226-0.158l0-0v-0.013zM40.035 9.884h1.16l0.872 3.983 0.892-3.983h1.128l0.113 5.749h-0.833l-0.089-3.995-0.861 3.995h-0.669l-0.892-4.010-0.083 4.010h-0.843l0.104-5.749zM45.5 9.884h1.806c1.040 0 1.56 0.544 1.56 1.633 0 1.042-0.547 1.562-1.643 1.561h-0.614v2.555h-1.115l0.007-5.749zM47.043 12.341c0.11 0.013 0.222 0.003 0.327-0.028 0.106-0.031 0.204-0.083 0.286-0.154 0.128-0.195 0.184-0.422 0.16-0.649 0.001-0.020 0.001-0.043 0.001-0.067 0-0.162-0.020-0.318-0.057-0.468l0.003 0.013c-0.017-0.061-0.045-0.114-0.083-0.159l0.001 0.001c-0.039-0.047-0.086-0.086-0.139-0.115l-0.002-0.001c-0.129-0.059-0.279-0.093-0.438-0.093-0.021 0-0.041 0.001-0.062 0.002l0.003-0h-0.433v1.718h0.433zM50.474 9.884h1.197l1.229 5.749h-1.039l-0.243-1.326h-1.068l-0.25 1.326h-1.055l1.229-5.749zM51.497 13.641l-0.417-2.413-0.417 2.413h0.835zM53.892 9.884h0.779l1.494 3.279v-3.279h0.925v5.749h-0.742l-1.503-3.423v3.423h-0.957l0.002-5.748zM59.258 13.441l-1.242-3.549h1.046l0.758 2.28 0.711-2.28h1.023l-1.226 3.549v2.191h-1.071v-2.191zM32.845 18.146v0.301h-0.91v2.336h-0.381v-2.336h-0.914v-0.301h2.205zM35.697 20.783h-0.294c-0.002 0-0.005 0-0.008 0-0.028 0-0.054-0.010-0.075-0.026l0 0c-0.022-0.015-0.038-0.036-0.048-0.060l-0-0.001-0.263-0.626h-1.262l-0.264 0.626c-0.008 0.028-0.022 0.051-0.040 0.071l0-0c-0.021 0.016-0.048 0.025-0.076 0.025-0.002 0-0.005-0-0.007-0h-0.294l1.115-2.637h0.387l1.128 2.626zM33.85 19.804h1.053l-0.446-1.073c-0.028-0.067-0.057-0.149-0.080-0.234l-0.003-0.014c-0.015 0.050-0.029 0.098-0.042 0.14l-0.040 0.111-0.442 1.071zM37.619 20.524c0.070 0.003 0.139 0.003 0.209 0 0.061-0.006 0.12-0.017 0.179-0.031 0.064-0.015 0.117-0.032 0.169-0.052l-0.009 0.003c0.049-0.018 0.099-0.042 0.15-0.065v-0.593h-0.446c-0.001 0-0.003 0-0.004 0-0.022 0-0.041-0.008-0.056-0.021l0 0c-0.014-0.011-0.022-0.027-0.022-0.046 0-0.001 0-0.002 0-0.003v0-0.202h0.865v1.010c-0.135 0.091-0.292 0.165-0.459 0.212l-0.012 0.003c-0.078 0.023-0.173 0.042-0.269 0.053l-0.009 0.001c-0.096 0.011-0.208 0.017-0.321 0.017-0.002 0-0.003 0-0.005 0h0c-0.004 0-0.009 0-0.014 0-0.197 0-0.385-0.036-0.559-0.102l0.011 0.004c-0.172-0.066-0.32-0.159-0.446-0.276l0.001 0.001c-0.12-0.116-0.217-0.255-0.285-0.409l-0.003-0.008c-0.065-0.157-0.103-0.339-0.103-0.53 0-0.006 0-0.012 0-0.019v0.001c-0-0.005-0-0.010-0-0.016 0-0.193 0.037-0.376 0.104-0.545l-0.004 0.010c0.064-0.157 0.161-0.299 0.287-0.417 0.127-0.118 0.279-0.212 0.446-0.273 0.191-0.067 0.394-0.101 0.598-0.098 0.104 0 0.207 0.007 0.31 0.022 0.090 0.014 0.179 0.036 0.266 0.067 0.078 0.028 0.153 0.063 0.223 0.104s0.134 0.088 0.195 0.138l-0.108 0.163c-0.009 0.015-0.021 0.027-0.036 0.036l-0 0c-0.015 0.009-0.032 0.014-0.051 0.014h-0c-0.026-0.001-0.050-0.008-0.070-0.021l0.001 0c-0.044-0.023-0.079-0.043-0.114-0.066l0.005 0.003c-0.042-0.025-0.092-0.049-0.143-0.069l-0.007-0.002c-0.057-0.022-0.126-0.042-0.197-0.057l-0.009-0.001c-0.081-0.015-0.174-0.023-0.269-0.023-0.005 0-0.010 0-0.014 0h0.001c-0.004-0-0.008-0-0.013-0-0.15 0-0.293 0.027-0.426 0.076l0.008-0.003c-0.125 0.047-0.237 0.118-0.328 0.209-0.089 0.091-0.159 0.2-0.205 0.321l-0.002 0.006c-0.1 0.286-0.1 0.594 0 0.879 0.049 0.125 0.125 0.237 0.223 0.333 0.092 0.090 0.202 0.161 0.326 0.209 0.142 0.045 0.292 0.063 0.442 0.052zM41.172 20.481h1.217v0.301h-1.59v-2.637h0.381l-0.009 2.335zM43.656 20.783h-0.381v-2.637h0.381v2.637zM45.074 18.159c0.022 0.012 0.042 0.028 0.058 0.048l1.63 1.987c-0.001-0.014-0.002-0.030-0.002-0.047s0.001-0.033 0.002-0.049l-0 0.002v-1.965h0.332v2.647h-0.191c-0.004 0-0.009 0.001-0.013 0.001-0.025 0-0.049-0.006-0.071-0.016l0.001 0c-0.023-0.013-0.043-0.030-0.060-0.050l-0-0-1.628-1.985v2.049h-0.319v-2.637h0.198c0.022 0 0.043 0.005 0.063 0.013zM49.901 18.146v0.29h-1.351v0.87h1.095v0.28h-1.095v0.899h1.351v0.291h-1.743v-2.63h1.743zM9.95 1.864l16.929 4.501v15.77l-16.928-4.499v-15.773zM8.865 0.52v17.883l19.098 5.078v-17.88l-19.098-5.082z"></path>
<path d="M19.1 31.783l-19.1-5.083v-17.881l19.1 5.081v17.883z"></path>
<path d="M9.181 1.662l16.707 4.444-7.105 6.655-16.71-4.446 7.107-6.653zM8.865 0.52l-8.865 8.299 19.1 5.081 8.863-8.299-19.098-5.081zM20.175 30.777l7.788-7.293-7.788-2.073v9.366z"></path>
</symbol>
<symbol id="icon-smartphone" viewBox="0 0 20 32">
<path d="M17 0h-14c-1.654 0-3 1.346-3 3v26c0 1.654 1.346 3 3 3h14c1.654 0 3-1.346 3-3v-26c0-1.654-1.346-3-3-3zM3 2h14c0.552 0 1 0.448 1 1v0 21h-16v-21c0-0.552 0.448-1 1-1v0zM17 30h-14c-0.552 0-1-0.448-1-1v0-3h16v3c0 0.552-0.448 1-1 1v0z"></path>
<path d="M4.708 27.478c0.18 0.163 0.293 0.399 0.293 0.66s-0.113 0.497-0.292 0.659l-0.001 0.001c-0.186 0.17-0.435 0.275-0.708 0.275s-0.522-0.104-0.709-0.275l0.001 0.001c-0.18-0.163-0.293-0.399-0.293-0.66s0.113-0.497 0.292-0.659l0.001-0.001c0.186-0.17 0.435-0.275 0.708-0.275s0.522 0.104 0.709 0.275l-0.001-0.001z"></path>
</symbol>
<symbol id="icon-twitter" viewBox="0 0 32 32">
<path d="M32 6.078c-1.1 0.493-2.376 0.857-3.713 1.028l-0.068 0.007c1.36-0.817 2.382-2.078 2.873-3.579l0.013-0.046c-1.197 0.722-2.591 1.273-4.076 1.573l-0.084 0.014c-1.2-1.279-2.9-2.076-4.787-2.076-3.622 0-6.558 2.936-6.558 6.558 0 0.001 0 0.003 0 0.004v-0c0 0.52 0.043 1.021 0.152 1.496-5.454-0.266-10.28-2.88-13.522-6.861-0.564 0.949-0.899 2.092-0.902 3.313v0.001c0 2.272 1.171 4.286 2.914 5.451-1.091-0.030-2.107-0.325-2.994-0.823l0.033 0.017v0.072c0.003 3.165 2.236 5.807 5.213 6.44l0.043 0.008c-0.499 0.136-1.071 0.215-1.662 0.215-0.020 0-0.041-0-0.061-0l0.003 0c-0.419 0-0.843-0.024-1.242-0.112 0.85 2.598 3.261 4.509 6.13 4.57-2.215 1.746-5.045 2.8-8.122 2.8-0.004 0-0.008 0-0.013 0h0.001c-0.018 0-0.040 0-0.062 0-0.531 0-1.055-0.034-1.569-0.099l0.061 0.006c2.826 1.846 6.287 2.944 10.004 2.944 0.021 0 0.042-0 0.063-0h-0.003c12.072 0 18.672-10 18.672-18.669 0-0.288-0.010-0.57-0.024-0.848 1.299-0.936 2.39-2.064 3.258-3.355l0.030-0.047z"></path>
</symbol>
</defs>
</svg>
